<?xml version="1.0" encoding="UTF-8" standalone="no"?>
<svg xmlns="http://www.w3.org/2000/svg" width="155" height="139" viewBox="0 0 155 139"
     fill="none" stroke="#000000" stroke-width="2.2" stroke-linecap="round" stroke-linejoin="round">
  <!-- Furniture box drawn in isometric perspective -->
  <path d="M45 55l32 -16l32 16l0 38l-32 16l-32 -16z" />
  <path d="M45 55l32 16l32 -16" />
  <path d="M77 71l0 38" />
  <!-- Vertical Z axis -->
  <path d="M77 60l0 -42" />
  <path d="M70 25l7 -9l7 9" />
  <path d="M68 39a11 5 0 0 0 18 0" stroke-dasharray="3 3" />
  <!-- Horizontal X axis (bottom right) -->
  <path d="M92 88l40 22" />
  <path d="M122 106l12 6l-3 -12" />
  <!-- Horizontal Y axis (bottom left) -->
  <path d="M62 88l-40 22" />
  <path d="M32 106l-12 6l3 -12" />
  <!-- Axis labels -->
  <text x="80" y="18" font-family="sans-serif" font-size="15" stroke="none" fill="#000000">Z</text>
  <text x="136" y="118" font-family="sans-serif" font-size="15" stroke="none" fill="#000000">X</text>
  <text x="2" y="118" font-family="sans-serif" font-size="15" stroke="none" fill="#000000">Y</text>
</svg>
